<svg height="24" width="24" xmlns="http://www.w3.org/2000/svg"><g fill="none" fill-rule="evenodd"><path d="M0 9h24V4.998A2.001 2.001 0 0021.995 3H2.005A2.004 2.004 0 000 4.998z" fill="#ff0726"/><path d="M0 9h24v6H0z" fill="#fcfbfa"/><path d="M0 19.002A2 2 0 002.005 21h19.99A2.004 2.004 0 0024 19.002V15H0z" fill="#000"/><path d="M15.73 12v-2h-.382l-1.078 1.378zm-7.078-1.994H8.27V10v2l1.46-.62zm2.357 2.99V14v-1.005H12l-.198-.278a3.076 3.076 0 00-.38-.425 2.027 2.027 0 00-.39-.292 1.818 1.818 0 00-.415.298 3.777 3.777 0 00-.413.437l-.204.26zm2.39-1.96c.126.172.201.297.201.297l.179-.298s.37-.26.25-.418l.185-.308c.103-.17.357-.309.59-.309h.396c.442 0 .8.288.8.66v2.68c0 .364-.294.497-.656.296l-1.744-.97h-.8v.667c0 .369-.371.667-.8.667-.442 0-.8-.31-.8-.667v-.666h-.8l-1.744.969c-.362.2-.656.076-.656-.297v-2.678c0-.365.371-.661.8-.661h.396c.223 0 .478.123.59.31l.192.32c-.114.144.234.39.234.39l.188.313s.085-.128.223-.306l.285-.337c.313-.341.723-.69 1.092-.69.401 0 .803.336 1.103.67z" fill="#facd62"/><rect height="17" opacity=".1" rx="2" stroke="#100f0e" width="23" x=".5" y="3.5"/></g></svg>